# Blender v3.2.0 OBJ File: ''
# www.blender.org
mtllib Snowboard_Top.mtl
o Snowboard_mapped
v -0.382890 0.053750 0.800030
v -0.342000 0.045310 0.790440
v -0.417110 0.053750 0.800030
v -0.265730 0.010010 0.000000
v -0.534270 0.010010 0.000000
v -0.262390 0.010010 0.199800
v -0.256550 0.010010 0.399600
v -0.543450 0.010010 0.399600
v -0.244000 0.010010 0.599410
v -0.556570 0.010010 0.649360
v -0.556000 0.010010 0.599410
v -0.537610 0.010010 0.199800
v -0.253420 0.013310 0.699310
v -0.243430 0.010010 0.649360
v -0.546580 0.013310 0.699310
v -0.282060 0.026900 0.749260
v -0.517940 0.026900 0.749260
v -0.308100 0.036520 0.774230
v -0.491900 0.036520 0.774230
v -0.458000 0.045310 0.790440
v -0.458000 0.045310 -0.790440
v -0.342000 0.045310 -0.790440
v -0.417110 0.053750 -0.800030
v -0.382890 0.053750 -0.800030
v -0.262390 0.010010 -0.199800
v -0.537610 0.010010 -0.199800
v -0.543450 0.010010 -0.399600
v -0.256550 0.010010 -0.399600
v -0.244000 0.010010 -0.599410
v -0.556570 0.010010 -0.649360
v -0.556000 0.010010 -0.599410
v -0.243430 0.010010 -0.649360
v -0.546580 0.013310 -0.699310
v -0.517940 0.026900 -0.749260
v -0.253420 0.013310 -0.699310
v -0.491900 0.036520 -0.774230
v -0.282060 0.026900 -0.749260
v -0.308100 0.036520 -0.774230
vt 0.146736 0.754956
vt 0.132075 0.748901
vt 0.159094 0.755210
vt 0.109712 0.476048
vt 0.202877 0.476044
vt 0.109585 0.545934
vt 0.109666 0.614718
vt 0.207434 0.613343
vt 0.108548 0.681194
vt 0.108120 0.711976
vt 0.108193 0.696312
vt 0.207461 0.717389
vt 0.111444 0.730626
vt 0.196314 0.735536
vt 0.211818 0.699466
vt 0.120213 0.741158
vt 0.186535 0.744861
vt 0.174046 0.751081
vt 0.174432 0.202932
vt 0.133208 0.204810
vt 0.159694 0.199054
vt 0.109606 0.406165
vt 0.204436 0.407361
vt 0.207310 0.339037
vt 0.109828 0.337400
vt 0.109081 0.270989
vt 0.211780 0.253557
vt 0.108925 0.255875
vt 0.207457 0.235901
vt 0.109069 0.240257
vt 0.196464 0.218025
vt 0.212191 0.271395
vt 0.112639 0.221843
vt 0.186777 0.208937
vt 0.121460 0.211912
vt 0.204536 0.544798
vt 0.212191 0.681381
vt 0.147533 0.199608
vn 0.0000 0.7507 -0.6607
vn 0.0000 1.0000 0.0000
vn 0.0000 0.9978 -0.0659
vn 0.0000 0.9649 -0.2625
vn 0.0000 0.9331 -0.3595
vn 0.0000 0.8791 -0.4767
vn 0.0000 0.7507 0.6607
vn 0.0000 0.9978 0.0659
vn 0.0000 0.9649 0.2625
vn 0.0000 0.9331 0.3595
vn 0.0000 0.8791 0.4767
usemtl Default_OBJ.001
s off
f 1/1/1 2/2/1 3/3/1
f 4/4/2 5/5/2 6/6/2
f 7/7/2 6/6/2 8/8/2
f 7/7/2 8/8/2 9/9/2
f 13/10/3 14/11/3 15/12/3
f 16/13/4 13/10/4 17/14/4
f 14/11/2 9/9/2 10/15/2
f 18/16/5 16/13/5 19/17/5
f 2/2/6 18/16/6 20/18/6
f 21/19/7 22/20/7 23/21/7
f 4/4/2 25/22/2 5/5/2
f 26/23/2 25/22/2 27/24/2
f 28/25/2 29/26/2 27/24/2
f 30/27/8 32/28/8 33/29/8
f 33/29/9 35/30/9 34/31/9
f 31/32/2 29/26/2 30/27/2
f 34/31/10 37/33/10 36/34/10
f 36/34/11 38/35/11 21/19/11
f 3/3/1 2/2/1 20/18/1
f 6/6/2 5/5/2 12/36/2
f 8/8/2 6/6/2 12/36/2
f 9/9/2 8/8/2 11/37/2
f 15/12/3 14/11/3 10/15/3
f 17/14/4 13/10/4 15/12/4
f 10/15/2 9/9/2 11/37/2
f 19/17/5 16/13/5 17/14/5
f 20/18/6 18/16/6 19/17/6
f 23/21/7 22/20/7 24/38/7
f 5/5/2 25/22/2 26/23/2
f 27/24/2 25/22/2 28/25/2
f 27/24/2 29/26/2 31/32/2
f 33/29/8 32/28/8 35/30/8
f 34/31/9 35/30/9 37/33/9
f 30/27/2 29/26/2 32/28/2
f 36/34/10 37/33/10 38/35/10
f 21/19/11 38/35/11 22/20/11
