# Blender v3.2.0 OBJ File: ''
# www.blender.org
mtllib Snowboard_Bottom_Half.mtl
o Snowboard_mapped
v -0.342000 0.040470 0.790440
v -0.382890 0.049060 0.800030
v -0.458000 0.040470 0.790440
v -0.382890 0.053750 0.800030
v -0.342000 0.045310 0.790440
v -0.417110 0.053750 0.800030
v -0.417110 0.049060 0.800030
v -0.265730 0.000020 0.000000
v -0.262390 0.000020 0.199800
v -0.534270 0.000020 0.000000
v -0.537610 0.000020 0.199800
v -0.543450 0.000020 0.399600
v -0.256550 0.000020 0.399600
v -0.244000 0.000020 0.599410
v -0.265730 0.010010 0.000000
v -0.534270 0.010010 0.000000
v -0.262390 0.010010 0.199800
v -0.256550 0.010010 0.399600
v -0.543450 0.010010 0.399600
v -0.244000 0.010010 0.599410
v -0.556570 0.000020 0.649360
v -0.556570 0.010010 0.649360
v -0.556000 0.000020 0.599410
v -0.556000 0.010010 0.599410
v -0.537610 0.010010 0.199800
v -0.243430 0.000020 0.649360
v -0.546580 0.003320 0.699310
v -0.253420 0.013310 0.699310
v -0.243430 0.010010 0.649360
v -0.546580 0.013310 0.699310
v -0.253420 0.003320 0.699310
v -0.517940 0.016900 0.749260
v -0.282060 0.026900 0.749260
v -0.517940 0.026900 0.749260
v -0.282060 0.016900 0.749260
v -0.491900 0.029020 0.774230
v -0.308100 0.036520 0.774230
v -0.491900 0.036520 0.774230
v -0.308100 0.029020 0.774230
v -0.458000 0.045310 0.790440
v -0.342000 0.040470 -0.790440
v -0.458000 0.040470 -0.790440
v -0.382890 0.049060 -0.800030
v -0.458000 0.045310 -0.790440
v -0.342000 0.045310 -0.790440
v -0.417110 0.053750 -0.800030
v -0.417110 0.049060 -0.800030
v -0.382890 0.053750 -0.800030
v -0.262390 0.000020 -0.199800
v -0.256550 0.000020 -0.399600
v -0.543450 0.000020 -0.399600
v -0.244000 0.000020 -0.599410
v -0.262390 0.010010 -0.199800
v -0.537610 0.010010 -0.199800
v -0.543450 0.010010 -0.399600
v -0.256550 0.010010 -0.399600
v -0.244000 0.010010 -0.599410
v -0.556570 0.000020 -0.649360
v -0.556000 0.000020 -0.599410
v -0.556570 0.010010 -0.649360
v -0.556000 0.010010 -0.599410
v -0.537610 0.000020 -0.199800
v -0.253420 0.003320 -0.699310
v -0.243430 0.000020 -0.649360
v -0.546580 0.003320 -0.699310
v -0.243430 0.010010 -0.649360
v -0.546580 0.013310 -0.699310
v -0.517940 0.026900 -0.749260
v -0.517940 0.016900 -0.749260
v -0.282060 0.016900 -0.749260
v -0.253420 0.013310 -0.699310
v -0.491900 0.036520 -0.774230
v -0.491900 0.029020 -0.774230
v -0.308100 0.029020 -0.774230
v -0.282060 0.026900 -0.749260
v -0.308100 0.036520 -0.774230
vt 0.082643 0.747706
vt 0.068363 0.752993
vt 0.041489 0.749747
vt 0.116450 0.793470
vt 0.120502 0.793887
vt 0.120018 0.829379
vt 0.123945 0.829783
vt 0.117064 0.858033
vt 0.105817 0.476053
vt 0.105934 0.545943
vt 0.012627 0.476052
vt 0.011092 0.544785
vt 0.008279 0.613138
vt 0.105727 0.614721
vt 0.106458 0.681126
vt 0.109712 0.476048
vt 0.109585 0.545934
vt 0.109666 0.614718
vt 0.004051 0.698500
vt 0.000569 0.699074
vt 0.003504 0.680753
vt 0.000000 0.680704
vt 0.004880 0.612946
vt 0.007669 0.544677
vt 0.106527 0.696151
vt 0.008340 0.716112
vt 0.108193 0.696312
vt 0.106314 0.711511
vt 0.063812 0.999138
vt 0.080153 0.952097
vt 0.072178 1.000000
vt 0.019386 0.733914
vt 0.108120 0.711976
vt 0.103071 0.729763
vt 0.093416 0.922934
vt 0.088527 0.952960
vt 0.108548 0.681194
vt 0.029113 0.743303
vt 0.111444 0.730626
vt 0.110105 0.761018
vt 0.106246 0.892459
vt 0.099696 0.923582
vt 0.094321 0.740068
vt 0.116385 0.761665
vt 0.110299 0.892876
vt 0.083954 0.203179
vt 0.042025 0.200333
vt 0.069483 0.197234
vt 0.120995 0.159757
vt 0.126472 0.124320
vt 0.125039 0.159561
vt 0.125087 0.095730
vt 0.130391 0.124130
vt 0.105954 0.406165
vt 0.105887 0.337393
vt 0.008178 0.338675
vt 0.106994 0.270980
vt 0.109606 0.406165
vt 0.109828 0.337400
vt 0.004114 0.252642
vt 0.003567 0.270664
vt 0.000528 0.251995
vt 0.000018 0.270711
vt 0.010998 0.407249
vt 0.004763 0.338864
vt 0.007568 0.407360
vt 0.107262 0.240649
vt 0.107260 0.256000
vt 0.008582 0.234866
vt 0.108925 0.255875
vt 0.016973 0.214129
vt 0.019642 0.216742
vt 0.005554 0.233046
vt 0.104284 0.222247
vt 0.109069 0.240257
vt 0.111390 0.029753
vt 0.105124 0.030056
vt 0.101892 0.000000
vt 0.109081 0.270989
vt 0.095660 0.211397
vt 0.029479 0.207068
vt 0.112950 0.191615
vt 0.112639 0.221843
vt 0.120255 0.060792
vt 0.116211 0.060988
vt 0.119216 0.191311
vt 0.129006 0.095540
vt 0.102755 0.891160
vt 0.120991 0.858437
vt 0.009190 0.476055
vt 0.004858 0.717179
vt 0.057014 0.196018
vt 0.093538 0.000405
vn 0.0000 -0.7449 0.6672
vn 0.2283 0.0000 0.9736
vn 0.0000 0.0000 1.0000
vn 0.0000 -1.0000 -0.0000
vn 0.9999 0.0000 -0.0167
vn 0.9996 0.0000 -0.0292
vn 0.9980 0.0000 -0.0627
vn -0.9999 0.0000 -0.0114
vn -0.9980 0.0000 -0.0627
vn -0.9996 0.0000 -0.0292
vn -0.9999 0.0000 -0.0167
vn 0.0000 -0.9978 0.0659
vn 0.9806 0.0000 0.1961
vn -0.8675 0.0000 0.4974
vn 0.0000 -0.9650 0.2623
vn 0.8675 0.0000 0.4974
vn -0.6921 0.0000 0.7218
vn -0.9806 0.0000 0.1961
vn 0.9999 0.0000 -0.0114
vn 0.0000 -0.8996 0.4367
vn 0.6921 0.0000 0.7218
vn -0.4314 0.0000 0.9022
vn 0.0000 -0.8168 0.5769
vn 0.4314 0.0000 0.9022
vn -0.2283 0.0000 0.9736
vn 0.0000 -0.7449 -0.6672
vn 0.2283 0.0000 -0.9736
vn 0.0000 0.0000 -1.0000
vn 0.9999 0.0000 0.0167
vn 0.9996 0.0000 0.0292
vn 0.9980 0.0000 0.0627
vn -0.9999 0.0000 0.0114
vn -0.9980 0.0000 0.0627
vn -0.9996 0.0000 0.0292
vn -0.9999 0.0000 0.0167
vn 0.0000 -0.9978 -0.0659
vn 0.9806 0.0000 -0.1961
vn -0.8675 0.0000 -0.4974
vn 0.0000 -0.9650 -0.2623
vn 0.8675 0.0000 -0.4974
vn -0.6921 0.0000 -0.7218
vn -0.9806 0.0000 -0.1961
vn 0.9999 0.0000 0.0114
vn 0.0000 -0.8996 -0.4367
vn 0.6921 0.0000 -0.7218
vn -0.4314 0.0000 -0.9022
vn 0.0000 -0.8168 -0.5769
vn 0.4314 0.0000 -0.9022
vn -0.2283 0.0000 -0.9736
usemtl Default_OBJ.001
s off
f 1/1/1 2/2/1 3/3/1
f 1/4/2 5/5/2 2/6/2
f 2/6/3 4/7/3 7/8/3
f 8/9/4 9/10/4 10/11/4
f 11/12/4 9/10/4 12/13/4
f 13/14/4 14/15/4 12/13/4
f 8/9/5 15/16/5 9/10/5
f 9/10/6 17/17/6 13/14/6
f 13/14/7 18/18/7 14/15/7
f 21/19/8 22/20/8 23/21/8
f 23/21/9 24/22/9 12/13/9
f 12/13/10 19/23/10 11/12/10
f 11/12/11 25/24/11 10/11/11
f 21/19/12 26/25/12 27/26/12
f 26/25/13 29/27/13 31/28/13
f 27/29/14 32/30/14 30/31/14
f 27/26/15 31/28/15 32/32/15
f 31/28/16 28/33/16 35/34/16
f 32/30/17 36/35/17 34/36/17
f 21/19/18 27/26/18 22/20/18
f 14/15/4 26/25/4 23/21/4
f 14/15/19 20/37/19 26/25/19
f 32/32/20 35/34/20 36/38/20
f 35/34/21 33/39/21 39/40/21
f 36/35/22 3/41/22 38/42/22
f 39/43/23 1/1/23 36/38/23
f 39/40/24 37/44/24 1/4/24
f 3/41/25 7/8/25 40/45/25
f 41/46/26 42/47/26 43/48/26
f 41/49/27 43/50/27 45/51/27
f 43/50/28 47/52/28 48/53/28
f 8/9/4 10/11/4 49/54/4
f 50/55/4 49/54/4 51/56/4
f 50/55/4 51/56/4 52/57/4
f 8/9/29 49/54/29 15/16/29
f 49/54/30 50/55/30 53/58/30
f 50/55/31 52/57/31 56/59/31
f 58/60/32 59/61/32 60/62/32
f 59/61/33 51/56/33 61/63/33
f 51/56/34 62/64/34 55/65/34
f 62/64/35 10/11/35 54/66/35
f 63/67/36 64/68/36 65/69/36
f 64/68/37 63/67/37 66/70/37
f 68/71/38 69/72/38 67/73/38
f 70/74/39 63/67/39 69/72/39
f 63/67/40 70/74/40 71/75/40
f 72/76/41 73/77/41 68/78/41
f 67/73/42 65/69/42 60/62/42
f 52/57/4 59/61/4 64/68/4
f 52/57/43 64/68/43 57/79/43
f 74/80/44 70/74/44 73/81/44
f 70/74/45 74/82/45 75/83/45
f 44/84/46 42/85/46 72/76/46
f 74/80/47 73/81/47 41/46/47
f 74/82/48 41/49/48 76/86/48
f 46/87/49 47/52/49 44/84/49
f 3/88/1 2/6/1 7/8/1
f 2/6/2 5/5/2 4/7/2
f 7/8/3 4/7/3 6/89/3
f 10/11/4 9/10/4 11/12/4
f 12/13/4 9/10/4 13/14/4
f 12/13/4 14/15/4 23/21/4
f 9/10/5 15/16/5 17/17/5
f 13/14/6 17/17/6 18/18/6
f 14/15/7 18/18/7 20/37/7
f 23/21/8 22/20/8 24/22/8
f 12/13/9 24/22/9 19/23/9
f 11/12/10 19/23/10 25/24/10
f 10/11/11 25/24/11 16/90/11
f 27/26/12 26/25/12 31/28/12
f 31/28/13 29/27/13 28/33/13
f 30/31/14 32/30/14 34/36/14
f 32/32/15 31/28/15 35/34/15
f 35/34/16 28/33/16 33/39/16
f 34/36/17 36/35/17 38/42/17
f 22/20/18 27/26/18 30/91/18
f 23/21/4 26/25/4 21/19/4
f 26/25/19 20/37/19 29/27/19
f 36/38/20 35/34/20 39/43/20
f 39/40/21 33/39/21 37/44/21
f 38/42/22 3/41/22 40/45/22
f 36/38/23 1/1/23 3/3/23
f 1/4/24 37/44/24 5/5/24
f 40/45/25 7/8/25 6/89/25
f 43/48/26 42/47/26 47/92/26
f 45/51/27 43/50/27 48/53/27
f 48/53/28 47/52/28 46/87/28
f 49/54/4 10/11/4 62/64/4
f 51/56/4 49/54/4 62/64/4
f 52/57/4 51/56/4 59/61/4
f 15/16/29 49/54/29 53/58/29
f 53/58/30 50/55/30 56/59/30
f 56/59/31 52/57/31 57/79/31
f 60/62/32 59/61/32 61/63/32
f 61/63/33 51/56/33 55/65/33
f 55/65/34 62/64/34 54/66/34
f 54/66/35 10/11/35 16/90/35
f 65/69/36 64/68/36 58/60/36
f 66/70/37 63/67/37 71/75/37
f 67/73/38 69/72/38 65/69/38
f 69/72/39 63/67/39 65/69/39
f 71/75/40 70/74/40 75/83/40
f 68/78/41 73/77/41 69/93/41
f 60/62/42 65/69/42 58/60/42
f 64/68/4 59/61/4 58/60/4
f 57/79/43 64/68/43 66/70/43
f 73/81/44 70/74/44 69/72/44
f 75/83/45 74/82/45 76/86/45
f 72/76/46 42/85/46 73/77/46
f 41/46/47 73/81/47 42/47/47
f 76/86/48 41/49/48 45/51/48
f 44/84/49 47/52/49 42/85/49
